<svg width="1000" height="1000" viewBox="0 0 1000 1000" fill="none" xmlns="http://www.w3.org/2000/svg">
<rect width="1000" height="1000" rx="70" fill="#E9FBFF"/>
<path d="M394.394 677.431C394.394 731.249 350.766 774.878 296.947 774.878C243.129 774.878 199.5 731.249 199.5 677.431C199.5 623.612 243.129 579.983 296.947 579.983C350.766 579.983 394.394 623.612 394.394 677.431Z" fill="#05162A"/>
<path d="M621.82 264.07C621.82 246.359 621.82 237.504 627.322 232.002C632.824 226.5 641.679 226.5 659.39 226.5H764.712C782.423 226.5 791.278 226.5 796.78 232.002C802.282 237.504 802.282 246.359 802.282 264.07V737.759C802.282 755.47 802.282 764.325 796.78 769.827C791.278 775.329 782.423 775.329 764.712 775.329H659.39C641.679 775.329 632.824 775.329 627.322 769.827C621.82 764.325 621.82 755.47 621.82 737.759V264.07Z" fill="#05162A"/>
<path d="M302.33 276.644C294.222 253.815 290.168 242.401 295.781 234.45C301.394 226.5 313.507 226.5 337.733 226.5H439.26C451.868 226.5 458.172 226.5 463.001 229.851C467.831 233.202 470.038 239.107 474.452 250.916L572.054 512.038C574.729 519.194 576.066 522.772 576.218 526.523C576.371 530.274 575.328 533.949 573.243 541.298L526.816 704.947C513.606 751.509 507.001 774.791 493.284 775.235C479.567 775.68 471.467 752.876 455.269 707.266L302.33 276.644Z" fill="#05162A"/>
</svg>
