<svg width="1000" height="1000" viewBox="0 0 1000 1000" fill="none" xmlns="http://www.w3.org/2000/svg">
<path d="M330.166 783.888C330.166 870.164 260.225 940.105 173.948 940.105C87.6716 940.105 17.7305 870.164 17.7305 783.888C17.7305 697.611 87.6716 627.67 173.948 627.67C260.225 627.67 330.166 697.611 330.166 783.888Z" fill="#05162A"/>
<path d="M694.752 121.229C694.752 92.8366 694.752 78.6405 703.572 69.8203C712.392 61 726.588 61 754.98 61H923.823C952.215 61 966.411 61 975.231 69.8203C984.051 78.6405 984.051 92.8366 984.051 121.229V880.601C984.051 908.993 984.051 923.189 975.231 932.009C966.411 940.829 952.215 940.829 923.823 940.829H754.98C726.588 940.829 712.392 940.829 703.572 932.009C694.752 923.189 694.752 908.993 694.752 880.601V121.229Z" fill="#05162A"/>
<path d="M182.577 141.386C169.579 104.789 163.08 86.4907 172.079 73.7453C181.078 61 200.496 61 239.332 61H402.091C422.302 61 432.408 61 440.15 66.3718C447.893 71.7436 451.431 81.2095 458.507 100.141L614.972 518.747C619.26 530.219 621.404 535.955 621.649 541.968C621.893 547.981 620.222 553.872 616.879 565.654L542.451 827.999C521.275 902.643 510.686 939.966 488.696 940.679C466.706 941.392 453.722 904.834 427.754 831.718L182.577 141.386Z" fill="#05162A"/>
</svg>
