<svg width="175" height="150" viewBox="0 0 175 150" fill="none" xmlns="http://www.w3.org/2000/svg">
<path d="M169.983 17.6444C169.599 19.2369 166.914 18.8388 166.914 17.2463C166.914 15.6537 162.694 14.4593 162.31 13.6631C161.927 12.8668 164.228 12.8668 165.763 14.0612C167.298 14.8575 168.448 14.4594 170.367 12.4687C172.285 10.8762 174.587 12.0706 174.97 10.4781C175.354 8.88555 171.901 7.69116 171.518 6.89491C170.75 6.09865 168.448 4.90427 166.53 5.3024C164.229 5.70053 164.229 4.90427 163.078 3.70988C161.927 2.5155 157.707 4.50615 157.707 7.29304C157.707 10.0799 155.021 9.28367 156.172 8.08929C156.939 6.49678 155.021 4.50613 156.939 4.10801C158.858 3.70988 157.707 0.524852 154.254 0.126724C150.418 -0.271405 149.267 2.91362 150.034 4.10801C150.801 5.30239 147.349 9.68181 146.198 9.68181C144.663 9.68181 146.581 5.70053 146.198 3.70988C146.198 1.71924 144.663 2.91362 141.978 6.09865C139.292 9.28367 136.99 12.4687 135.456 12.8668C133.921 13.265 133.921 9.68181 136.607 8.48743C139.292 6.89491 139.292 2.91362 140.827 2.91362C142.361 2.91362 142.361 0.92298 140.06 0.126724C137.374 -0.669533 136.991 2.51551 136.223 3.31176C135.456 4.10802 131.236 1.71925 131.236 2.5155C131.236 3.31176 128.934 3.70989 130.085 5.3024C131.236 6.89492 129.701 8.0893 128.551 6.49679C127.4 4.50614 125.098 6.09865 123.947 8.08929C122.796 10.0799 121.261 10.0799 122.412 10.8762C123.563 11.6724 123.563 14.4593 121.645 14.8575C119.727 15.2556 120.494 9.6818 118.96 10.0799C117.425 10.4781 118.576 7.29304 120.494 7.29304C122.412 7.29304 124.331 4.50614 123.947 3.70988C123.563 2.5155 121.645 2.91363 121.645 4.50614C121.645 6.09866 118.576 5.70053 116.274 5.70053C113.589 5.70053 113.972 8.88555 116.658 10.4781C119.343 12.0706 116.274 13.265 114.74 12.0706C113.205 10.8762 111.287 11.2743 109.753 12.0706C108.218 12.8668 113.205 14.8575 113.589 15.6537C113.972 16.45 110.903 14.4594 110.52 15.2556C109.752 16.0519 107.067 14.8575 107.067 12.8668C106.683 11.2743 102.463 13.6631 104.765 14.0612C107.451 14.8575 106.3 16.45 106.3 18.8388C106.3 21.2275 103.231 19.2369 103.998 17.2463C104.765 15.2556 102.08 15.6537 100.162 16.8481C98.2435 18.0425 100.545 14.4593 99.778 12.8668C99.0107 11.2743 97.0925 12.8668 95.1744 13.265C93.2562 13.6631 92.1053 13.6631 93.2562 15.2556C94.4071 16.8481 94.4072 18.8388 92.489 18.4406C90.9545 18.0425 90.1872 18.4406 90.1872 20.0331C90.5708 21.6257 87.8853 21.6257 87.8853 20.4313C87.5017 18.8388 84.4326 19.2369 83.2817 21.2275C82.1308 22.82 79.4454 24.0144 79.829 26.0051C80.2126 27.9957 82.5145 25.2088 84.049 25.6069C85.9672 26.4032 84.049 27.1994 84.8163 27.9957C85.9672 28.792 85.5835 31.1807 84.049 29.9863C82.5145 28.792 80.98 28.3938 80.5963 30.3845C80.2127 32.3751 78.6781 29.9864 77.5272 28.3938C76.3763 26.8013 75.2254 31.1807 73.6908 30.3845C72.5399 29.1901 76.3764 26.0051 75.2255 24.4126C74.0746 22.82 73.6909 25.2088 71.3891 27.5976C69.0873 29.9864 66.0182 29.9864 67.1691 31.1807C68.32 32.3751 64.8673 32.7732 64.1 34.7639C63.3327 36.7545 58.7292 37.5508 55.6601 39.5414C52.591 41.5321 56.4274 41.5321 57.9619 39.9396C59.4965 37.9489 60.2637 39.1433 62.9491 37.1527C65.6346 35.5602 68.7037 33.9676 69.471 34.7639C70.6219 35.5601 72.1564 35.9583 73.3073 33.9676C74.4582 31.977 76.3763 32.3751 77.5272 33.5695C78.6781 34.7639 75.2254 35.5602 76.76 37.1527C78.2945 38.7452 74.8418 39.9396 74.8418 38.347C74.8418 36.7545 72.9236 35.5602 72.1563 37.1527C71.3891 38.347 70.2382 39.9396 69.0873 39.9396C67.9364 39.9396 66.4018 42.7265 66.4018 45.1152C66.4018 47.504 64.1001 45.1152 63.7164 47.1059C63.3328 49.0965 60.2637 53.0778 57.5783 55.8647C54.8928 58.6516 57.1946 59.4478 56.4273 61.0404C55.66 62.6329 52.2074 61.4385 51.0565 61.8366C49.9056 62.6329 51.8238 67.0123 50.2893 68.2067C48.7547 69.401 50.2893 71.3917 50.2893 72.9842C50.2893 74.5767 46.4529 72.1879 46.0693 73.7805C45.6856 75.373 42.2329 74.9748 41.4656 75.373C40.3147 75.7711 43.3838 78.1599 45.3019 79.7524C47.2201 81.3449 43.7674 82.5393 43.3838 80.5487C43.0001 78.9561 40.3147 81.743 37.2456 82.9374C34.1765 84.5299 35.3275 87.3168 33.0257 87.3168C30.7239 87.3168 31.4911 91.2981 29.5729 92.4925C28.0384 93.6869 28.422 89.7056 25.7366 89.3075C23.0512 89.3075 23.4349 90.9 24.9694 93.2887C26.5039 95.2794 22.6676 93.6869 21.1331 95.6775C19.5985 97.6681 15.7621 96.4738 14.6112 98.0663C13.4603 99.6588 17.6803 99.6588 18.0639 100.853C18.8312 102.048 14.6112 101.649 12.3094 100.853C10.0076 100.455 10.7749 103.64 8.85672 103.242C6.93855 102.844 4.25316 104.834 5.7877 106.427C7.32223 108.02 4.63675 108.019 3.10221 107.223C1.56768 106.427 0.416821 108.418 0.033187 110.408C-0.350447 112.001 2.71855 113.195 2.71855 113.991C2.71855 114.788 0.0331871 115.982 1.95136 116.778C3.86953 117.176 2.33494 118.769 1.18404 119.565C0.0331401 119.963 0.0331401 121.158 1.18404 122.75C2.33494 124.343 -0.734151 124.741 0.800385 127.13C2.33492 129.518 3.48592 126.333 4.25318 128.324C5.02045 129.917 6.93858 128.722 9.24038 126.333C11.5422 124.343 12.3094 128.722 10.3912 128.324C8.47306 128.324 6.55492 129.518 6.93855 131.111C7.32219 133.102 4.25318 132.703 4.25318 130.315C4.25318 127.926 0.416821 130.713 1.95136 132.305C3.48589 133.898 1.5677 135.092 1.5677 136.287C1.5677 137.879 4.25314 137.481 5.40404 135.888C6.55494 134.296 8.47309 134.694 8.85672 136.287C9.62399 137.879 7.32221 136.685 7.32221 139.073C7.32221 141.462 5.78763 139.472 4.63672 141.064C3.48582 143.055 9.62406 146.24 11.9259 147.036C13.844 147.434 15.7621 149.823 19.9821 149.027C23.8184 148.23 31.4912 140.666 32.6421 139.472C33.793 138.277 35.7111 139.87 37.2456 138.277C38.7801 137.083 38.013 133.898 38.7802 133.102C39.9311 132.305 40.3147 136.685 41.4656 137.083C42.2329 137.481 43.0001 138.277 43.0001 140.268C43.7674 140.268 44.5347 140.268 45.3019 140.666C46.4529 141.86 46.8365 137.481 46.8365 135.888C46.8365 134.694 47.9874 131.907 47.9874 130.315C47.6038 128.722 51.8237 129.917 52.591 128.722C53.3582 127.528 53.742 122.75 52.2074 121.954C51.0565 121.158 50.6729 118.769 51.8238 118.769C52.9747 118.769 54.8928 117.575 54.5091 115.186C54.1255 112.399 50.2892 112.797 49.9056 110.01C49.522 107.223 51.8238 106.825 50.2893 103.242C48.7547 100.057 51.0565 98.0663 50.2893 96.0756C49.522 94.4831 49.1383 92.4925 51.0565 88.9093C52.9746 85.7243 56.4274 83.7337 57.9619 84.1318C59.1128 84.5299 61.4146 85.7243 62.5655 83.7337C63.7164 81.743 63.7164 80.1505 62.5655 79.7524C61.4146 79.3542 59.1128 78.558 61.031 76.1692C62.9491 73.3823 65.251 70.1973 65.6346 67.0123C66.0183 63.8273 64.8673 61.8366 66.0182 60.6422C67.1691 59.4478 69.0873 60.6422 71.0055 59.4478C72.9236 58.2535 71.3891 56.2628 72.1563 55.4666C73.3072 54.2722 74.4581 51.0872 75.609 50.2909C76.7599 49.0965 78.2945 47.9021 77.1436 46.7077C75.9927 45.5133 79.0618 43.9208 79.0618 41.5321C79.0618 39.1433 82.1308 37.5508 84.049 37.5508C85.9672 37.5508 89.0362 37.5508 89.0362 35.5601C89.0362 33.5695 87.8854 29.1901 90.5708 30.3845C93.6399 31.5789 95.558 29.9863 97.4762 31.5789C99.3944 33.1714 102.08 32.7733 102.08 30.3845C102.08 27.5976 103.231 23.2182 105.916 25.2088C106.3 25.2088 106.3 25.6069 106.683 25.6069C107.834 23.2182 109.369 22.0238 111.287 22.0238C113.972 22.4219 115.507 27.1995 118.576 27.5976C121.645 28.3938 125.098 29.5882 125.865 27.9957C127.016 26.4032 128.934 29.1901 130.852 28.3938C132.771 27.5976 132.771 31.977 134.689 29.5882C136.607 26.8013 134.305 25.2088 137.758 25.6069C140.827 26.0051 138.909 22.0238 138.909 19.635C138.909 17.2462 143.129 16.8481 143.129 14.8575C143.129 12.8668 148.883 14.4594 150.034 13.265C151.185 12.0706 154.254 10.8762 155.405 13.265C156.556 15.6537 162.31 16.45 162.31 18.4406C162.31 19.2369 162.31 20.8294 162.31 22.4219C163.078 21.6257 164.229 20.8294 165.379 20.8294C167.298 20.8294 169.216 17.6444 171.134 18.0425C172.669 18.4406 174.203 18.0425 174.587 15.6537C173.436 16.45 170.367 16.45 169.983 17.6444Z" fill="black"/>
</svg>
