<svg width="175" height="133" viewBox="0 0 175 133" fill="none" xmlns="http://www.w3.org/2000/svg">
<path d="M173.993 23.6393C169.28 23.6393 163.781 24.4545 159.854 22.8242C155.141 22.0091 145.716 21.1939 143.359 18.7485C141.003 16.303 137.075 13.8575 137.075 17.1181C137.075 20.3787 130.006 20.3788 126.079 17.9333C122.151 15.4879 115.868 13.0424 112.726 11.4121C111.155 10.597 108.013 8.96665 104.871 7.33635C100.944 8.1515 88.3762 3.26058 80.5215 4.89088C71.8813 5.70603 45.1751 3.2606 34.9639 4.07575C24.7528 4.89089 23.9673 0 18.469 0C12.9707 0 15.3271 7.33635 6.6869 7.33635C-1.16782 7.33635 -1.95324 13.0424 3.54506 17.9333C6.68695 20.3788 6.6871 26.8999 5.90162 31.7908C7.47257 31.7908 9.04351 30.9757 9.82898 30.1606C12.1854 26.9 14.5416 27.7151 14.5416 30.9757C14.5416 34.2363 20.04 33.4211 23.1819 33.4211C26.3238 33.4211 25.5384 35.8665 28.6803 33.4211C31.8222 30.9757 37.3205 31.7908 37.3205 35.0514C37.3205 38.312 45.1752 36.6817 40.4623 40.7575C36.535 44.8332 31.8221 45.6484 31.8221 48.9089C31.8221 52.1695 36.535 58.6908 32.6076 62.7665C29.4657 66.0271 33.393 72.5483 30.2511 72.5483C27.1092 72.5483 22.3964 74.1786 27.1092 78.2543C31.0366 82.33 34.1785 86.4058 31.0366 86.4058C27.8947 86.4058 26.3238 92.927 27.8947 94.5573C29.4657 96.1876 36.5349 101.079 31.0366 101.894C25.5383 102.709 25.5384 107.6 25.5384 110.86C25.5384 111.675 26.3238 114.121 27.8947 115.751C30.2512 114.936 32.6075 114.936 34.9639 116.566C40.4623 119.012 44.3897 134.5 51.4589 132.869C54.6008 132.054 53.0298 129.609 54.6007 127.978C56.1717 126.348 59.3136 127.163 62.4555 127.163C65.5974 127.163 67.1683 122.272 75.0231 122.272C82.8778 122.272 87.5907 121.457 92.3036 121.457C97.0164 121.457 100.944 119.827 102.515 116.566C104.086 113.306 108.013 110.045 113.511 109.23C119.009 108.415 118.224 102.709 119.01 98.633C119.795 95.3724 128.435 90.4816 129.221 87.221C130.006 84.7755 123.722 74.9937 129.221 66.0271C134.719 57.0604 141.003 57.0605 141.003 52.1696C141.003 47.2787 146.501 45.6484 153.57 44.8332C160.64 44.0181 162.996 39.1272 168.494 36.6817C173.207 33.4211 174.778 29.3454 173.993 23.6393ZM174.778 70.1028C173.993 62.7665 159.854 72.5483 162.996 74.1786C169.28 79.0695 176.349 77.4392 174.778 70.1028Z" fill="black"/>
</svg>
