<svg width="100" height="179" viewBox="0 0 100 179" fill="none" xmlns="http://www.w3.org/2000/svg">
<path d="M97.7477 41.0694C96.3964 39.667 94.1441 36.8622 96.3963 36.8622C98.1981 36.8622 99.099 30.7851 96.8468 29.8502C94.5945 28.4478 96.8468 23.7731 95.045 22.3707C93.2432 20.9683 94.1441 17.2286 94.5945 14.4238C95.045 11.619 87.3873 9.28164 83.3333 7.41177C79.2792 5.5419 77.4774 2.26963 73.8738 0.399758C70.2702 -1.47011 69.3693 3.67203 69.3693 6.47683C69.3693 9.7491 66.2162 10.2166 63.964 7.87923C61.7117 6.00936 59.0089 7.87923 55.8558 6.47683C52.2522 5.07443 54.054 10.2166 54.054 12.5539C54.054 14.8912 50.4505 14.8912 48.1982 14.8912C45.946 14.8912 42.3423 16.7611 42.3423 19.5659C42.3423 22.3707 38.7387 23.7731 40.09 25.643C41.4414 27.0454 39.6396 28.9153 38.2883 29.8502C36.9369 31.2526 35.1351 34.9923 34.2342 35.9273C32.8829 37.3297 35.1352 39.1996 32.8829 40.602C30.6307 42.0044 27.9279 41.0694 27.027 42.0044C25.6757 43.4068 27.027 45.7441 26.5765 49.4838C26.1261 53.2236 23.4235 56.9633 21.1712 60.2356C18.919 63.5079 22.0721 63.9753 22.973 64.4428C24.3243 64.9103 24.3243 66.7801 22.973 69.1175C21.6216 71.4548 19.3693 70.0524 17.5675 69.585C16.2162 69.1175 11.7117 70.9874 9.45948 75.1946C7.20723 78.9343 8.10808 81.2717 8.55853 83.609C9.45943 85.4789 6.75673 87.8162 8.55853 92.0234C10.3603 95.7631 7.65774 96.6981 8.10819 99.9704C8.55864 103.243 13.0631 102.775 13.5135 106.047C13.964 109.32 12.1622 110.255 10.3604 110.255C8.55864 110.255 9.00898 113.527 10.8108 113.994C12.1621 114.929 12.1622 120.071 11.2613 121.941C10.3604 123.344 5.40548 121.941 5.85593 123.811C6.30639 125.681 4.5045 128.953 4.5045 130.356C4.5045 131.758 4.05408 136.9 2.70273 135.965C2.25228 135.498 1.35135 135.498 0 135.498C0 135.965 0 135.965 0 136.433C0 139.705 0.900983 142.51 3.60368 144.847C6.30639 147.185 4.05402 150.457 6.30628 153.262C8.55853 156.534 7.65774 158.404 10.3604 160.741C12.6127 163.078 13.0631 164.013 12.1622 166.818C11.2613 169.623 14.4145 168.688 14.4145 170.558C14.4145 172.428 13.5136 175.7 14.4145 177.57C15.3154 179.44 16.6667 177.57 20.7207 177.57C24.3243 177.57 23.4235 175.233 23.8739 172.895C23.8739 170.558 25.6757 171.493 26.1262 170.09C26.5766 168.688 30.1802 168.221 32.8829 169.623C35.5856 171.025 36.937 168.688 37.3874 165.883C37.8379 163.078 39.1891 166.351 40.09 167.286C40.9909 167.753 43.2432 162.611 44.5945 159.339C45.9459 156.066 44.5947 156.534 41.8919 159.806C39.1892 163.078 40.5406 156.534 41.8919 154.197C42.7928 151.859 42.7928 144.38 43.2432 142.51C43.6937 140.64 44.1441 138.303 47.7477 137.368C51.3513 136.433 55.8559 132.226 54.955 130.356C54.0541 128.486 59.4595 125.681 59.4595 123.811C59.4595 121.941 53.6036 116.332 51.8018 114.929C50 113.527 45.946 114.462 45.946 113.527C46.3964 112.124 45.4955 106.982 45.045 104.178C44.5946 101.373 48.1982 98.5679 48.1982 96.2306C48.1982 93.8933 48.1982 90.621 50.4505 89.686C52.7027 88.7511 51.3513 86.4138 54.054 85.9463C57.2072 85.0114 56.3063 80.8042 59.4595 79.4018C62.6126 77.9994 63.063 77.0644 67.117 74.7271C71.1711 72.8572 78.3784 67.7151 79.2793 65.3777C80.6306 63.0404 75.2252 60.2356 78.3783 57.4308C81.9819 54.626 78.8288 51.8212 81.5315 50.8863C83.7838 49.9513 85.1352 48.5489 86.937 46.679C88.7388 44.8092 90.991 46.679 95.4955 45.7441C96.8468 45.2766 98.6486 45.7441 100 45.7441C98.6486 43.4068 98.1982 41.5369 97.7477 41.0694ZM58.108 148.587C53.6035 148.587 51.3514 157.936 52.7027 159.339C53.6036 160.741 62.6125 148.587 58.108 148.587Z" fill="black"/>
</svg>
