<svg width="165" height="95" viewBox="0 0 165 95" fill="none" xmlns="http://www.w3.org/2000/svg">
<path d="M145.645 38.0795C137.206 42.458 126.659 31.5118 126.659 27.1333C126.659 24.944 124.549 16.1871 126.659 11.8086C120.33 7.43009 111.892 3.05156 105.563 3.05156C95.0155 -1.32694 88.6865 -1.32697 80.2483 5.24078C73.9197 7.43003 59.1528 7.42999 48.605 7.42999C48.605 11.8085 46.4958 13.9978 44.3863 13.9978C35.948 13.9978 27.5099 22.7547 25.4004 29.3225C23.2908 38.0795 6.41425 44.6473 2.19514 59.972C-2.02397 75.2968 0.0852003 81.8645 6.41387 73.1075C14.8521 64.3505 23.2907 66.5399 23.2907 75.2969C23.2907 84.0539 33.8382 84.0537 29.6191 95C40.1669 95 57.0433 92.8108 61.2624 92.8108C69.7007 92.8108 76.0292 68.7291 80.2483 64.3506C84.4674 62.1614 92.9057 81.8646 101.344 90.6216C109.782 99.3786 111.892 84.0538 111.892 77.4861C111.892 70.9183 120.33 68.7291 124.549 68.7291C130.878 70.9183 141.426 73.1076 141.426 64.3506C141.426 55.5936 147.755 59.972 151.974 59.972C156.193 59.972 158.302 51.215 158.302 51.215L164.631 44.6473C158.302 35.8903 151.973 33.701 145.645 38.0795Z" fill="black"/>
</svg>
