<svg width="119" height="128" viewBox="0 0 119 128" fill="none" xmlns="http://www.w3.org/2000/svg">
<path d="M114.989 61.7116C114.989 50.6108 102.955 46.4477 98.9438 42.2849C94.9326 38.1221 78.8877 31.184 72.2023 21.4708C65.5169 11.7576 61.5057 24.2463 58.8315 25.6339C56.1574 25.6339 56.1573 18.6957 48.1349 8.9825C40.1124 -0.730714 32.0899 -0.730799 28.0787 0.656803C26.7416 2.0444 24.0675 2.0444 21.3933 0.656803C17.3821 6.20721 14.7079 10.37 14.7079 14.5328C14.7079 25.6336 6.68539 36.7344 6.68539 56.1609C6.68539 75.5873 1.33708 72.8123 0 88.076C0 103.34 5.34831 100.564 6.68539 103.34C8.02246 104.727 6.68551 108.89 5.34843 113.053C8.02259 114.44 9.35962 118.603 14.7079 117.216C24.0675 115.828 33.4271 119.991 45.4607 125.541C57.4944 131.091 52.1461 124.153 64.1797 125.541C74.8764 126.929 88.2471 128.316 100.281 119.991C108.303 114.44 112.315 106.115 119 96.4017C110.978 85.3008 114.989 70.0372 114.989 61.7116Z" fill="black"/>
</svg>
