<svg width="205" height="104" viewBox="0 0 205 104" fill="none" xmlns="http://www.w3.org/2000/svg">
<path d="M201.098 11.5333C200.899 10.5001 197.912 11.3267 196.319 10.0869C194.925 8.84712 192.337 14.2195 191.939 16.4924C191.341 18.7653 187.558 21.2449 187.558 21.2449C187.558 21.2449 176.408 21.4515 175.413 21.4515C174.816 21.4515 172.227 23.7244 170.634 25.1708C170.634 25.1708 170.634 25.3774 170.833 25.3774C172.028 27.4437 167.847 28.6835 163.865 28.8901C162.67 28.8901 161.674 29.0968 161.077 29.0968C161.276 29.51 161.276 30.1299 161.276 30.5432C161.276 30.7498 160.878 31.163 160.281 31.3697C159.683 32.6094 154.905 35.089 152.117 36.5354C149.131 38.1884 145.149 37.3619 145.149 34.8824C145.149 32.4028 147.339 33.0227 147.737 34.0558C147.936 34.4691 148.533 34.2625 149.131 33.6426C148.334 32.8161 148.334 31.7829 148.533 30.7498C147.737 30.3365 149.131 26.6172 147.14 25.9973C145.348 25.3774 143.158 28.6835 143.357 26.6172C143.755 24.5509 146.542 22.6912 144.75 20.0051C142.958 17.3189 139.972 17.3189 139.375 19.3852C138.777 21.4515 136.587 20.4183 135.791 22.0714C134.994 23.7244 134.198 27.2371 134.795 29.9233C135.392 32.6095 134.596 33.8492 132.207 35.2956C129.817 36.742 128.623 33.0227 129.618 28.2702C130.216 24.9642 132.008 21.8647 130.415 21.8647C128.822 21.8647 132.406 17.9388 135.791 17.1123C138.976 16.2858 143.158 16.699 143.158 15.6659C143.158 15.4592 143.357 15.2526 143.556 15.2526C142.958 14.6327 142.162 14.2195 141.565 13.8062C141.565 14.0128 141.366 14.2195 141.167 14.4261C139.972 15.4592 140.171 12.9797 137.981 12.9797C135.592 12.9797 133.202 15.2526 131.41 14.2195C129.618 13.1863 130.415 11.9466 128.822 11.9466C127.03 11.9466 130.017 8.64049 127.627 10.0869C125.039 11.5333 121.455 15.046 119.663 13.3929C117.871 11.7399 116.477 13.8062 115.084 12.5664C113.889 11.3267 119.464 7.60733 122.052 7.81395C122.65 7.81395 123.247 7.60733 123.844 6.98744C122.451 6.36756 119.663 5.33442 118.867 6.16093C117.871 7.40071 116.477 6.57418 115.88 5.54103C115.084 4.50789 114.287 5.95429 112.893 4.30126C111.699 2.85486 110.305 3.88801 109.708 4.09463C108.911 4.50789 108.115 3.47474 106.721 3.06149C105.327 2.4416 106.323 1.20182 105.327 0.168677C104.133 -0.657839 104.133 1.82171 104.133 1.82171L6.96873 2.4416C7.16784 2.64823 7.16785 2.85486 7.36695 2.85486C8.56159 4.09464 7.56607 5.12778 7.96428 6.57418C8.36249 8.02058 7.96427 10.2935 6.96873 10.2935C5.77409 10.2935 5.57497 8.8471 6.5705 8.43384C7.36693 8.02058 6.96874 6.16093 6.17231 6.16093C5.57499 6.16093 5.37588 5.54105 5.57498 4.92116C3.98213 5.33442 2.19017 5.12779 0 4.92116V5.12778C0 6.16093 0.597315 8.22723 1.79195 10.0869C2.98659 11.7399 2.19016 12.7731 3.3848 13.3929C4.57944 14.0128 4.38033 14.8394 3.3848 14.6327C2.38927 14.4261 2.98659 15.4592 2.58838 17.9388C2.19016 20.4183 2.19017 25.3774 1.99106 27.0305C1.79196 28.4769 1.22542e-05 31.163 0.995545 32.6095C1.99108 34.2625 2.78749 36.5354 2.19017 38.6017C1.59285 40.668 1.79195 41.9077 2.58838 43.3541C3.3848 44.8005 2.7875 47.4867 3.58392 48.1066C4.57945 48.7265 5.37589 49.7597 6.17231 51.2061C6.96874 52.6525 7.76517 51.8259 7.96428 53.2723C8.16339 54.7187 8.16338 54.9254 9.35802 55.5453C10.5527 56.1651 9.75621 57.6116 9.75621 58.4381C9.75621 59.2646 11.3491 60.711 13.3401 62.5706C15.3312 64.4303 13.7383 65.8767 15.1321 65.8767C16.5258 65.8767 18.1187 66.7032 19.5124 67.7364C20.9062 68.7695 21.5035 68.1496 22.499 68.3563C23.4946 68.5629 25.4856 70.8358 25.6847 72.4889C25.8838 73.1087 26.083 73.9352 26.4812 74.7617L34.6445 73.7286C34.6445 73.7286 37.2329 75.5883 38.6267 75.7949C40.0204 76.2082 47.7856 79.101 47.7856 79.101H57.7409L58.9356 77.4479H64.5105C64.5105 77.4479 68.0944 80.9606 68.4926 81.1673C69.09 81.3739 70.6828 83.0269 70.6828 84.0601C70.6828 85.0932 71.081 85.9197 71.8775 86.333C72.6739 86.7462 75.4614 88.6059 76.0587 88.3993C76.4569 88.1927 77.2534 84.8866 78.8462 85.0932C80.4391 85.0932 84.4212 86.333 85.0185 88.8125C85.6158 91.2921 87.6069 93.1517 88.4033 93.7716C89.0006 94.3915 88.8015 95.8379 89.1997 96.4578C89.7971 97.2843 89.598 98.7307 90.1953 98.7307C90.7926 98.7307 93.7792 100.59 95.1729 100.59C95.5711 100.59 96.1685 100.797 96.5667 101.21C96.7658 98.3175 93.7792 97.9042 95.5712 96.4578C97.5622 95.0114 95.5711 93.565 96.3676 92.9451C97.3631 92.3252 98.956 91.7053 98.956 90.6722C98.956 89.639 99.7524 89.639 101.146 89.8457C102.341 90.0523 104.73 87.7794 104.531 86.7462C104.332 85.9197 104.73 85.7131 106.323 85.9197C107.717 86.333 107.518 84.06 108.513 84.4733C109.509 84.8866 110.305 85.2998 110.305 84.6799C110.305 83.8534 111.301 84.06 112.097 85.0932C112.893 86.1263 114.885 86.333 115.084 85.0932C115.283 84.06 116.477 85.0932 117.473 86.1264C118.468 87.1595 118.867 86.9529 120.459 86.9529C121.853 86.9529 121.853 86.5396 122.052 85.7131C122.052 84.6799 123.645 87.7794 125.238 87.986C126.632 88.1927 125.636 86.9529 124.442 86.1264C123.446 85.2998 124.641 84.8866 123.645 84.0601C122.65 83.2335 124.84 82.407 126.632 82.407C128.424 82.407 128.424 83.0269 129.22 81.7871C130.017 80.754 130.614 81.7872 130.614 82.8203C130.614 83.8534 133.601 82.2004 135.392 82.2004C136.985 82.2004 138.578 83.6468 138.578 84.6799C138.777 85.7131 139.773 86.1263 140.967 85.0932C142.162 84.06 143.158 82.8203 144.153 84.0601C145.149 85.0932 146.343 86.7462 147.737 88.1926C149.131 89.639 147.14 91.2921 147.737 92.3252C148.533 93.3584 147.737 94.8048 149.131 96.0445C150.724 97.0777 149.33 99.5572 150.525 99.7639C151.719 100.177 152.715 102.037 152.914 102.863C153.113 103.69 155.502 104.723 155.502 103.277C155.701 101.83 156.896 100.177 157.095 98.9373C157.294 97.6976 156.1 92.9451 155.104 91.4987C154.108 90.0523 155.303 89.6391 154.108 87.986C152.914 86.333 152.117 83.2336 152.117 80.754C152.117 78.2745 154.905 74.3485 156.299 73.1087C157.692 71.8689 159.086 72.4888 159.484 71.2491C159.883 70.0093 161.475 68.3563 162.471 68.3563C163.466 68.3563 164.462 68.5629 164.661 67.5297C164.86 66.4966 166.453 65.2568 168.444 64.8436C170.435 64.4303 169.241 63.3972 168.842 62.364C168.245 61.3309 169.241 60.5044 169.639 61.1243C170.037 61.7441 171.232 61.9507 172.028 61.3309C172.824 60.711 174.616 59.2646 172.825 59.058C171.033 59.058 170.634 58.2314 171.829 57.8182C172.825 57.4049 172.028 55.5453 170.634 55.3386C169.241 55.132 169.639 54.5121 170.634 53.479C171.431 52.6524 169.44 51.206 168.444 50.3795C167.449 49.553 169.041 49.3464 169.838 49.1398C170.634 48.9331 170.037 45.2138 170.435 44.3873C170.833 43.5608 172.227 43.5608 171.63 44.3873C171.033 45.2138 170.236 46.6602 171.232 47.9C172.227 49.1398 172.625 50.3795 172.227 52.2392C171.829 54.0989 172.625 53.6856 173.82 51.2061C175.015 48.7265 175.214 46.6602 174.417 46.4536C173.621 46.247 173.621 43.7674 174.616 45.0072C175.413 46.0403 175.811 46.247 177.205 44.8006C178.599 43.3542 179.992 40.8746 178.997 40.2547C178.2 39.6348 179.395 39.0149 180.988 39.2216C182.581 39.2216 185.966 38.1884 186.165 37.7752C186.961 36.1221 180.789 38.6017 180.789 37.5685C180.789 36.742 184.771 35.7089 186.563 35.7089C188.355 35.7089 187.558 33.0227 188.355 34.2625C189.151 35.2956 190.346 35.089 191.341 34.4691C192.337 33.8492 191.541 31.9896 190.346 31.5763C189.151 31.163 191.142 30.5432 190.744 29.7166C190.346 28.8901 191.541 25.9973 192.934 25.7907C194.328 25.3774 193.731 24.5509 194.925 24.5509C196.12 24.5509 196.319 23.1045 197.514 21.8647C198.509 20.8316 200.102 23.7244 201.894 22.0714C202.69 21.4515 203.487 20.625 204.482 20.0051C199.903 16.2857 201.098 12.5664 201.098 11.5333Z" fill="black"/>
</svg>
